<svg width="890" height="984" viewBox="0 0 890 984" fill="none" xmlns="http://www.w3.org/2000/svg">
<path d="M168.299 0.235352V981.048H54.0586C24.2029 981.048 0 956.858 0 927.02V54.2637C0 24.425 24.2029 0.235369 54.0586 0.235352H168.299Z" fill="#233D6A"/>
<path d="M879.532 39.9775C890.839 27.8103 891.501 9.80063 881 0.0419922L599.672 0L325.629 294.897C325.619 295.158 325.609 295.419 325.6 295.681C269.406 345.597 234 418.403 234 499.478C234 579.572 268.556 651.594 323.571 701.452L581.639 979.725L620.508 983.308L882.001 979.724C892.511 969.976 892.218 952.344 881.35 940.625L471.59 514.478C465.453 508.982 456.862 494.038 471.59 478.234C636.724 300.834 872.211 47.8551 879.532 39.9775Z" fill="#233D6A"/>
</svg>
